# xmcd
#
# Track frame offsets: 
#        150
#        15246
#        28804
#        42944
#        56546
#        68614
#        84609
#        99021
#        114707
#        130179
#        145688
#        159184
#        172591
#
# Disc length: 2502 seconds
#
# Revision: 0
# Processed by: cddbd v1.5.2PL0 Copyright (c) Steve Scherf et al.
# Submitted via: ExactAudioCopy v1.0b3
#
DISCID=9109c40d
DTITLE=The Wolfe Brothers - This Crazy Life
DYEAR=2016
DGENRE=Country
TTITLE0=This Crazy Life
TTITLE1=Good Together
TTITLE2=Ain't Even Close to Gone
TTITLE3=When I Was the One
TTITLE4=Hit the Road
TTITLE5=Even Beautiful Gets Lonely
TTITLE6=The Mess That I'm In
TTITLE7=Every Time
TTITLE8=Pull It On Over
TTITLE9=That Guy
TTITLE10=Gettin' Undone
TTITLE11=Love Gone
TTITLE12=Throw 'Em Back
EXTD=
EXTT0=
EXTT1=
EXTT2=
EXTT3=
EXTT4=
EXTT5=
EXTT6=
EXTT7=
EXTT8=
EXTT9=
EXTT10=
EXTT11=
EXTT12=
PLAYORDER=
